HIERARCHY
ROOT Hips
{
 OFFSET 0.000000 0.000000 0.000000
 CHANNELS 6 Xposition Yposition Zposition Yrotation Xrotation Zrotation
 JOINT Chest
 {
  OFFSET 0.000000 9.585900 0.002600
  CHANNELS 3 Yrotation Xrotation Zrotation
  JOINT Chest2
  {
   OFFSET 0.000000 9.601200 -0.005300
   CHANNELS 3 Yrotation Xrotation Zrotation
   JOINT Chest3
   {
    OFFSET 0.000000 9.561800 0.000000
    CHANNELS 3 Yrotation Xrotation Zrotation
    JOINT Chest4
    {
     OFFSET 0.000000 9.552100 0.000000
     CHANNELS 3 Yrotation Xrotation Zrotation
     JOINT Neck
     {
      OFFSET 0.000000 14.453000 0.000000
      CHANNELS 3 Yrotation Xrotation Zrotation
      JOINT Head
      {
       OFFSET 0.000000 8.936500 -0.011300
       CHANNELS 3 Yrotation Xrotation Zrotation
       End Site
       {
        OFFSET 0.000000 17.073600 -0.006000
       }
      }
     }
     JOINT RightCollar
     {
      OFFSET -2.921100 9.558500 0.000000
      CHANNELS 3 Yrotation Xrotation Zrotation
      JOINT RightShoulder
      {
       OFFSET -13.519700 0.000000 0.000000
       CHANNELS 3 Yrotation Xrotation Zrotation
       JOINT RightElbow
       {
        OFFSET 0.000000 -29.696600 0.000000
        CHANNELS 3 Yrotation Xrotation Zrotation
        JOINT RightWrist
        {
         OFFSET 0.000000 -24.004700 0.000000
         CHANNELS 3 Yrotation Xrotation Zrotation
         End Site
         {
          OFFSET 0.000000 -17.728500 0.000000
         }
        }
       }
      }
     }
     JOINT LeftCollar
     {
      OFFSET 2.921100 9.558500 0.000000
      CHANNELS 3 Yrotation Xrotation Zrotation
      JOINT LeftShoulder
      {
       OFFSET 13.519700 0.000000 0.000000
       CHANNELS 3 Yrotation Xrotation Zrotation
       JOINT LeftElbow
       {
        OFFSET 0.000000 -29.696600 0.000000
        CHANNELS 3 Yrotation Xrotation Zrotation
        JOINT LeftWrist
        {
         OFFSET 0.000000 -24.004700 0.000000
         CHANNELS 3 Yrotation Xrotation Zrotation
         End Site
         {
          OFFSET 0.000000 -17.728500 0.000000
         }
        }
       }
      }
     }
    }
   }
  }
 }
 JOINT RightHip
 {
  OFFSET -7.771700 -0.012900 -0.001300
  CHANNELS 3 Yrotation Xrotation Zrotation
  JOINT RightKnee
  {
   OFFSET 0.000000 -40.869800 0.001200
   CHANNELS 3 Yrotation Xrotation Zrotation
   JOINT RightAnkle
   {
    OFFSET 0.000000 -39.717900 0.002100
    CHANNELS 3 Yrotation Xrotation Zrotation
    JOINT RightToe
    {
     OFFSET 0.000000 -4.965400 11.033500
     CHANNELS 3 Yrotation Xrotation Zrotation
     End Site
     {
      OFFSET 0.000000 -1.423100 5.872300
     }
    }
   }
  }
 }
 JOINT LeftHip
 {
  OFFSET 7.771700 -0.012900 -0.001300
  CHANNELS 3 Yrotation Xrotation Zrotation
  JOINT LeftKnee
  {
   OFFSET 0.000000 -40.869800 0.001200
   CHANNELS 3 Yrotation Xrotation Zrotation
   JOINT LeftAnkle
   {
    OFFSET 0.000000 -39.717900 0.002100
    CHANNELS 3 Yrotation Xrotation Zrotation
    JOINT LeftToe
    {
     OFFSET 0.000000 -4.965400 11.033500
     CHANNELS 3 Yrotation Xrotation Zrotation
     End Site
     {
      OFFSET 0.000000 -1.423100 5.872300
     }
    }
   }
  }
 }
}
MOTION
Frames: 16
Frame Time: 0.008333
-53.552686 50.103587 36.020768 172.674606 -35.116348 -4.946725 6.276507 19.939335 5.921076 0.708327 2.678733 0.612347 1.189173 4.383494 1.017663 5.245306 17.062082 4.633273 -0.595832 17.247195 1.700256 -1.704886 -3.747018 3.336383 -2.849620 -1.559761 -8.099352 1.928879 -3.159342 -0.314497 143.309508 -75.181491 -154.609544 13.340578 5.436024 49.340847 -10.105058 -2.432746 0.646195 7.043458 -6.497260 2.372061 -144.687903 -66.512645 140.501254 -6.862555 15.676808 -60.260661 5.362291 -46.863190 5.479122 -36.647777 85.611449 -25.987500 -3.396445 -5.306911 -1.800714 0.018928 0.230468 -0.026776 -11.845215 -49.591645 16.788327 -140.872353 87.969421 -147.455888 0.394655 -6.964045 2.775077 -0.018333 -0.238146 0.019635
-53.554333 50.108358 36.024619 172.695330 -35.089525 -4.970400 6.272243 19.919607 5.933343 0.709803 2.684420 0.616071 1.200040 4.385212 1.019122 5.250419 17.053743 4.646693 -0.605120 17.246992 1.704898 -1.652526 -3.705347 3.380651 -2.882254 -1.550738 -8.101187 1.662894 -3.048345 -0.521140 146.624295 -74.951044 -157.603056 13.171619 5.227719 50.000403 -10.187317 -2.384214 0.645228 7.207912 -6.563874 2.528829 -148.090841 -67.018054 143.233215 -6.454687 15.753619 -60.336248 5.303408 -46.887371 5.509696 -36.774586 85.605040 -26.126144 -3.391069 -5.310494 -1.806999 0.022956 0.231828 -0.021129 -11.863209 -49.621878 16.814163 -140.659024 87.967803 -147.246925 0.384866 -6.957039 2.788762 -0.016622 -0.236051 0.019262
-53.555839 50.114360 36.026288 172.703611 -35.081782 -4.983716 6.274391 19.913443 5.940766 0.715556 2.688454 0.618225 1.192709 4.378596 1.019961 5.251308 17.047849 4.649373 -0.590835 17.260764 1.717841 -1.603820 -3.649263 3.431347 -2.917810 -1.470195 -8.070325 1.423922 -3.011625 -0.736965 149.655207 -74.661547 -160.318788 12.988588 5.016595 50.483293 -10.229696 -2.334143 0.647902 7.355286 -6.606641 2.681521 -151.621743 -67.444049 146.094329 -5.932500 15.792088 -60.186375 5.262637 -46.893926 5.536214 -36.896523 85.600032 -26.258116 -3.388748 -5.312614 -1.812653 0.020811 0.229799 -0.015634 -11.861086 -49.631132 16.827598 -140.479041 87.966859 -147.070658 0.373458 -6.953560 2.802797 -0.013610 -0.234564 0.013414
-53.557271 50.120196 36.027594 172.706608 -35.079401 -4.991281 6.275496 19.910688 5.945260 0.719021 2.686960 0.613508 1.190705 4.377925 1.025915 5.249575 17.046442 4.651088 -0.562455 17.281496 1.744239 -1.567807 -3.595704 3.475109 -2.963329 -1.382889 -8.034984 1.219642 -2.997724 -0.931302 152.316320 -74.313539 -162.685921 12.795329 4.793430 50.782602 -10.241987 -2.316355 0.648487 7.470344 -6.607503 2.827137 -155.152799 -67.761041 148.978931 -5.297707 15.787335 -59.811276 5.235301 -46.896621 5.555112 -36.964284 85.598471 -26.332911 -3.388905 -5.314149 -1.815592 0.009015 0.225930 -0.010956 -11.851350 -49.634600 16.841468 -140.127963 87.962266 -146.730993 0.367647 -6.949341 2.822858 -0.014553 -0.235127 0.010679
-53.557930 50.125450 36.029139 172.707255 -35.078318 -4.998908 6.277382 19.908734 5.949896 0.716300 2.688347 0.613633 1.192970 4.375104 1.024870 5.250963 17.045739 4.655881 -0.536116 17.306864 1.772545 -1.534168 -3.549048 3.513610 -3.013508 -1.297939 -8.002193 1.048509 -2.991960 -1.093737 154.572304 -73.911369 -164.678969 12.592694 4.556457 50.899262 -10.279948 -2.258506 0.655076 7.599326 -6.631409 2.944989 -158.581735 -67.969424 151.802621 -4.568337 15.735718 -59.238322 5.213541 -46.898406 5.571892 -36.952325 85.598836 -26.324021 -3.390185 -5.316829 -1.818222 0.010849 0.228627 -0.013029 -11.851448 -49.635634 16.859971 -139.994032 87.959412 -146.608699 0.359342 -6.946185 2.836350 -0.018001 -0.235311 0.009358
-53.557614 50.130321 36.030554 172.704480 -35.080577 -5.006578 6.273566 19.914181 5.951615 0.720725 2.690149 0.618231 1.191011 4.381836 1.026225 5.255276 17.052967 4.667430 -0.513079 17.314974 1.787716 -1.503158 -3.513430 3.544203 -3.064058 -1.232737 -7.976279 0.906387 -2.994883 -1.230943 156.445700 -73.468126 -166.318480 12.378890 4.299759 50.841259 -10.302162 -2.222615 0.651202 7.698041 -6.636399 3.045273 -161.873378 -68.090522 154.535619 -3.766837 15.631291 -58.522926 5.194260 -46.897364 5.590800 -36.929389 85.599268 -26.301744 -3.390903 -5.319596 -1.822141 0.012237 0.229674 -0.012556 -11.849576 -49.632113 16.892264 -139.837895 87.956534 -146.475215 0.339281 -6.944260 2.861740 -0.020012 -0.235306 0.007148
-53.554955 50.135245 36.031582 172.684688 -35.089453 -5.014393 6.290900 19.928242 5.970952 0.724782 2.686058 0.617990 1.191776 4.384125 1.027231 5.260297 17.070794 4.677959 -0.473490 17.357358 1.836064 -1.493033 -3.526573 3.548901 -3.151118 -1.110844 -7.917004 0.807086 -3.069288 -1.368375 158.005948 -73.002387 -167.662252 12.150660 4.024815 50.616362 -10.324735 -2.192082 0.655682 7.770799 -6.621061 3.127028 -165.034257 -68.144343 157.181506 -2.920670 15.478510 -57.702216 5.177822 -46.891796 5.627915 -36.918047 85.596071 -26.290981 -3.391818 -5.319647 -1.826276 0.008738 0.227271 -0.009480 -11.836989 -49.622226 16.931114 -139.565431 87.944890 -146.214243 0.326843 -6.945613 2.877405 -0.018740 -0.236088 0.010992
-53.553933 50.139004 36.032969 172.677926 -35.090836 -5.016922 6.293617 19.943723 5.978987 0.727755 2.676810 0.615434 1.193097 4.387008 1.028340 5.267353 17.095018 4.690932 -0.456356 17.364545 1.854212 -1.467280 -3.513285 3.576418 -3.208579 -1.040607 -7.876472 0.696754 -3.104446 -1.460724 159.342417 -72.533897 -168.791576 11.903006 3.752724 50.239041 -10.348991 -2.166993 0.663643 7.822959 -6.594932 3.194719 -168.064382 -68.140356 159.733359 -2.053188 15.287430 -56.778935 5.167590 -46.894173 5.645629 -36.953379 85.595488 -26.329299 -3.393032 -5.321968 -1.825064 0.009127 0.228086 -0.009974 -11.820216 -49.622997 16.949643 -139.219698 87.936533 -145.881356 0.322932 -6.943157 2.894655 -0.021882 -0.237233 0.015472
-53.552770 50.142406 36.034316 172.672230 -35.089649 -5.018384 6.297717 19.950952 5.985242 0.722753 2.705737 0.621839 1.195951 4.404224 1.034022 5.271073 17.077602 4.684561 -0.437999 17.373532 1.873704 -1.439735 -3.496513 3.605864 -3.248806 -0.995820 -7.848938 0.589842 -3.124472 -1.511371 160.549303 -72.080082 -169.798537 11.632767 3.507359 49.734100 -10.385876 -2.087328 0.687792 7.876392 -6.617194 3.232914 -170.946488 -68.086439 162.167981 -1.172731 15.064336 -55.746696 5.155008 -46.898930 5.661623 -36.972319 85.597420 -26.352158 -3.393395 -5.324076 -1.825041 0.009565 0.228345 -0.010574 -11.808867 -49.626090 16.968623 -138.893165 87.927656 -145.569411 0.323051 -6.938978 2.907862 -0.024940 -0.239507 0.018516
-53.551177 50.145296 36.036298 172.660548 -35.081426 -5.018078 6.306518 19.951912 5.992806 0.719952 2.726492 0.625035 1.198528 4.402343 1.033741 5.274968 17.083861 4.688786 -0.424439 17.374880 1.885448 -1.403999 -3.453154 3.641744 -3.280823 -0.952468 -7.820541 0.549147 -3.175851 -1.549174 161.651544 -71.679935 -170.759611 11.337390 3.300584 49.129588 -10.416325 -2.036422 0.703287 7.911658 -6.606883 3.276242 -173.649301 -67.991672 164.453895 -0.278661 14.815228 -54.606571 5.144570 -46.911309 5.678077 -36.888430 85.601433 -26.270508 -3.400098 -5.325091 -1.827931 0.012030 0.229017 -0.010539 -11.797686 -49.635599 16.993027 -138.654431 87.921301 -145.344550 0.313872 -6.936434 2.927534 -0.021531 -0.239110 0.012004
-53.549593 50.147941 36.038712 172.648903 -35.066905 -5.017877 6.310837 19.980932 6.001663 0.727514 2.694865 0.620953 1.198570 4.417597 1.038330 5.277981 17.090118 4.692907 -0.423141 17.353855 1.879898 -1.355635 -3.365461 3.684337 -3.305997 -0.913015 -7.791491 0.449630 -3.195547 -1.542098 162.766118 -71.266617 -171.670439 11.014123 3.131133 48.449633 -10.446639 -1.999044 0.710578 7.936430 -6.578942 3.317172 -176.130316 -67.862776 166.553957 0.635348 14.546751 -53.380134 5.106372 -46.927776 5.711110 -36.876318 85.600944 -26.277298 -3.392607 -5.325035 -1.830658 0.011842 0.229055 -0.012333 -11.786653 -49.652401 17.018729 -138.562647 87.918585 -145.265624 0.296791 -6.930906 2.948203 -0.022956 -0.241404 0.011420
-53.548384 50.151353 36.040251 172.638905 -35.055940 -5.016604 6.318653 19.987594 6.009871 0.727884 2.688419 0.619110 1.199634 4.419053 1.038437 5.283183 17.110702 4.703074 -0.404681 17.376655 1.898964 -1.323203 -3.309061 3.700694 -3.329128 -0.879491 -7.763125 0.383471 -3.223570 -1.509626 163.782150 -70.883578 -172.514684 10.656870 2.986626 47.703306 -10.482688 -1.958706 0.712678 7.956306 -6.551211 3.346288 -178.367624 -67.705963 168.450545 1.571043 14.263938 -52.106355 5.084473 -46.940126 5.729693 -36.895965 85.600689 -26.304489 -3.384767 -5.326182 -1.835010 0.012469 0.230160 -0.015123 -11.734359 -49.670302 17.019556 -138.328552 87.912987 -145.028108 0.272448 -6.927946 2.977800 -0.020310 -0.240922 0.009757
-53.547787 50.155425 36.041097 172.627873 -35.048497 -5.012219 6.328074 19.995927 6.018110 0.727126 2.692850 0.616464 1.203573 4.430956 1.045987 5.286653 17.113832 4.706267 -0.369135 17.452239 1.932576 -1.312426 -3.304463 3.704214 -3.354156 -0.851160 -7.739486 0.373454 -3.275918 -1.512656 164.807112 -70.558813 -173.429159 10.262591 2.847509 46.883853 -10.523169 -1.915756 0.706155 7.982859 -6.578702 3.352681 179.611417 -67.577525 170.152242 2.507899 13.974529 -50.826474 5.063530 -46.947656 5.746367 -36.874848 85.602057 -26.292759 -3.382432 -5.328555 -1.837301 0.014801 0.231453 -0.019555 -11.715089 -49.680519 17.023325 -138.324460 87.913363 -145.025624 0.267494 -6.918970 2.975550 -0.023488 -0.246541 0.018424
-53.547800 50.160315 36.040943 172.624849 -35.047658 -5.009996 6.330680 20.002909 6.021730 0.729620 2.723128 0.631057 1.205102 4.424040 1.041560 5.290173 17.117600 4.710148 -0.355744 17.481900 1.944654 -1.289561 -3.255388 3.722910 -3.372811 -0.854602 -7.737659 0.363472 -3.295736 -1.417875 165.578563 -70.234141 -174.080573 9.840985 2.693084 45.981572 -10.556909 -1.889973 0.692933 7.984213 -6.521321 3.359788 177.725570 -67.362226 171.764666 3.412619 13.684237 -49.568934 5.043840 -46.946258 5.756573 -36.882757 85.603208 -26.306215 -3.381741 -5.333616 -1.839973 0.016261 0.231421 -0.020327 -11.695539 -49.682338 17.018521 -138.263018 87.916309 -144.965669 0.262342 -6.915453 2.980252 -0.019728 -0.243949 0.014325
-53.547224 50.165356 36.040912 172.615563 -35.049161 -5.009504 6.340120 20.010654 6.031233 0.731850 2.726420 0.632551 1.208844 4.433631 1.046949 5.287926 17.114066 4.707884 -0.356803 17.481475 1.943646 -1.249292 -3.155196 3.760711 -3.395399 -0.790093 -7.697400 0.382747 -3.384610 -1.333995 166.209966 -69.946241 -174.610374 9.400537 2.505376 45.001968 -10.569907 -1.886228 0.685983 7.966150 -6.436524 3.340293 175.988238 -67.148302 173.246722 4.267391 13.384022 -48.354003 5.038767 -46.942137 5.754064 -37.103697 85.593372 -26.508084 -3.357690 -5.338137 -1.859555 0.012868 0.228395 -0.012807 -11.644220 -49.685564 17.008266 -138.177594 87.912414 -144.870681 0.245136 -6.915512 2.996656 -0.018778 -0.242056 0.015090
-53.546350 50.171319 36.039680 172.607154 -35.062571 -5.011381 6.353579 20.029883 6.045289 0.730871 2.721882 0.629483 1.216897 4.449364 1.057413 5.282769 17.109709 4.703938 -0.309050 17.574721 1.993936 -1.255030 -3.132508 3.771254 -3.413679 -0.720360 -7.652186 0.418648 -3.489927 -1.263525 166.795404 -69.701455 -175.109989 8.940737 2.279105 43.961995 -10.598835 -1.812700 0.674381 7.963152 -6.452707 3.291093 174.392124 -66.965283 174.608428 5.076943 13.058870 -47.204175 5.013709 -46.924051 5.771892 -37.149467 85.590295 -26.552378 -3.346232 -5.341622 -1.871629 0.012158 0.226842 -0.013131 -11.617698 -49.671301 17.008263 -138.184225 87.915386 -144.877466 0.233991 -6.918311 3.007851 -0.019971 -0.240632 0.013975
